<?xml version="1.0" encoding="UTF-8" standalone="no"?>
<!-- Generator: Gravit.io -->

<svg
   xmlns:dc="http://purl.org/dc/elements/1.1/"
   xmlns:cc="http://creativecommons.org/ns#"
   xmlns:rdf="http://www.w3.org/1999/02/22-rdf-syntax-ns#"
   xmlns:svg="http://www.w3.org/2000/svg"
   xmlns="http://www.w3.org/2000/svg"
   xmlns:sodipodi="http://sodipodi.sourceforge.net/DTD/sodipodi-0.dtd"
   xmlns:inkscape="http://www.inkscape.org/namespaces/inkscape"
   style="isolation:isolate"
   viewBox="0 0 124.875 133.28003"
   width="124.875"
   height="133.28003"
   version="1.1"
   id="svg72"
   sodipodi:docname="fiverr.svg"
   inkscape:version="0.92.3 (2405546, 2018-03-11)">
  <metadata
     id="metadata76">
    <rdf:RDF>
      <cc:Work
         rdf:about="">
        <dc:format>image/svg+xml</dc:format>
        <dc:type
           rdf:resource="http://purl.org/dc/dcmitype/StillImage" />
        <dc:title></dc:title>
      </cc:Work>
    </rdf:RDF>
  </metadata>
  <sodipodi:namedview
     pagecolor="#ffffff"
     bordercolor="#666666"
     borderopacity="1"
     objecttolerance="10"
     gridtolerance="10"
     guidetolerance="10"
     inkscape:pageopacity="0"
     inkscape:pageshadow="2"
     inkscape:window-width="1920"
     inkscape:window-height="1025"
     id="namedview74"
     showgrid="false"
     inkscape:zoom="1.2795642"
     inkscape:cx="238.2916"
     inkscape:cy="198.9685"
     inkscape:window-x="0"
     inkscape:window-y="27"
     inkscape:window-maximized="1"
     inkscape:current-layer="g70"
     inkscape:pagecheckerboard="true" />
  <defs
     id="defs5">
    <clipPath
       id="_clipPath_MReCnj0SQjifQ13hnR13pxcUrcRmVoC6">
      <rect
         width="534.55701"
         height="141.133"
         id="rect2"
         x="0"
         y="0" />
    </clipPath>
  </defs>
  <g
     clip-path="url(#_clipPath_MReCnj0SQjifQ13hnR13pxcUrcRmVoC6)"
     id="g70"
     transform="translate(0,-5.5409678)">
    <clipPath
       id="_clipPath_1pvOp5sj38WHsNSoGjfMNIT0JGaR6b5B">
      <path
         d="M 0,0 V 141.133 H 534.557 V 0 Z"
         id="path7"
         inkscape:connector-curvature="0"
         style="fill:#ffffff" />
    </clipPath>
    <g
       clip-path="url(#_clipPath_1pvOp5sj38WHsNSoGjfMNIT0JGaR6b5B)"
       id="g12"
       style="fill:#ffffff;fill-opacity:1">
      <path
         d="m 113.3,116.237 c 3.84,0 7.668,0 11.575,0 0,7.584 0,15.046 0,22.584 -18.249,0 -36.444,0 -54.634,0 -0.252,-0.868 -0.346,-20.49 -0.091,-22.566 3.796,-0.041 7.62,0.004 11.416,-0.025 0.264,-0.945 0.326,-46.456 0.076,-47.901 -12.477,0 -24.967,0 -37.45,0 -0.264,0.928 -0.3,46.607 -0.02,47.894 4.448,0 8.923,0 13.485,0 0,7.58 0,15.041 0,22.588 -18.896,0 -37.77,0 -56.719,0 0,-7.506 0,-14.967 0,-22.573 3.881,0 7.703,0 11.59,0 0,-16.035 0,-31.925 0,-47.972 -4.177,0 -8.321,0 -12.528,0 0,-7.589 0,-15.022 0,-22.635 4.136,-0.079 8.279,0.011 12.597,-0.05 0,-0.581 0.003,-1.091 -10e-4,-1.601 -0.027,-3.647 0.13,-7.276 0.859,-10.867 2.13,-10.5 8.27,-17.693 18.029,-21.894 4.415,-1.901 9.055,-2.948 13.817,-3.526 5.408,-0.656 10.82,-0.602 16.237,-0.181 1.123,0.088 2.24,0.266 3.402,0.407 0,8.21 0,16.331 0,24.566 -1.485,-0.116 -2.918,-0.242 -4.352,-0.338 -2.996,-0.201 -5.996,-0.221 -8.949,0.361 -1.253,0.247 -2.513,0.674 -3.648,1.256 -2.37,1.216 -3.69,3.268 -3.873,5.916 -0.132,1.923 -0.026,3.862 -0.026,5.895 22.976,0 45.91,0 68.73,0 0.144,0.131 0.178,0.155 0.203,0.186 0.025,0.029 0.045,0.063 0.06,0.099 0.015,0.037 0.024,0.078 0.029,0.117 0.009,0.08 0.018,0.161 0.022,0.242 0.005,0.08 0.005,0.161 0.005,0.242 10e-4,0.081 0.002,0.162 0.002,0.243 0,22.91 0.001,45.82 0.002,68.729 0,0.081 0.005,0.162 0.008,0.243 10e-4,0.04 10e-4,0.081 0.007,0.121 0.007,0.04 0.018,0.079 0.03,0.117 0.011,0.039 0.026,0.076 0.11,0.323 z"
         id="path10"
         inkscape:connector-curvature="0"
         style="fill:#ffffff;fill-opacity:1" />
    </g>
    <clipPath
       id="_clipPath_cRx8C1WzR85wOXXb51OH9kjhESkyneut">
      <path
         d="M 0,0 V 141.133 H 534.557 V 0 Z"
         id="path14"
         inkscape:connector-curvature="0"
         style="fill:#ffffff" />
    </clipPath>
    <g
       clip-path="url(#_clipPath_cRx8C1WzR85wOXXb51OH9kjhESkyneut)"
       id="g19" />
    <clipPath
       id="_clipPath_DNkd3ZTSEfJUt6otpOBxfXlBT7haajrK">
      <path
         d="M 0,0 V 141.133 H 534.557 V 0 Z"
         id="path21"
         inkscape:connector-curvature="0"
         style="fill:#ffffff" />
    </clipPath>
    <clipPath
       id="_clipPath_0rpkmzQq0yJsIyYFsW4lTRZ65ttyM49P">
      <path
         d="M 0,0 V 141.133 H 534.557 V 0 Z"
         id="path28"
         inkscape:connector-curvature="0"
         style="fill:#ffffff" />
    </clipPath>
    <clipPath
       id="_clipPath_TlipZQJVgkJUCR7KIlFUdVyxiUll6IVu">
      <path
         d="M 0,0 V 141.133 H 534.557 V 0 Z"
         id="path35"
         inkscape:connector-curvature="0"
         style="fill:#ffffff" />
    </clipPath>
    <clipPath
       id="_clipPath_AK72TFuCDuoQfc9XpkeNJNZetTixoVtT">
      <path
         d="M 0,0 V 141.133 H 534.557 V 0 Z"
         id="path42"
         inkscape:connector-curvature="0"
         style="fill:#ffffff" />
    </clipPath>
    <g
       clip-path="url(#_clipPath_AK72TFuCDuoQfc9XpkeNJNZetTixoVtT)"
       id="g47"
       style="fill:#ffffff;fill-opacity:1">
      <path
         d="m 82.433,20.568 c 0.035,-8.337 6.762,-15.044 15.072,-15.027 8.333,0.017 15.119,6.86 15.069,15.194 C 112.523,29.01 105.702,35.73 97.398,35.687 89.064,35.644 82.399,28.91 82.433,20.568 Z"
         id="path45"
         inkscape:connector-curvature="0"
         style="fill:#ffffff;fill-opacity:1" />
    </g>
    <clipPath
       id="_clipPath_fLvi6ZYifa8vy5bxrIStORqdKdgm0ctE">
      <path
         d="M 0,0 V 141.133 H 534.557 V 0 Z"
         id="path49"
         inkscape:connector-curvature="0"
         style="fill:#ffffff" />
    </clipPath>
    <clipPath
       id="_clipPath_0vhA3qwvoFyT8hUXwGloWO8zTiRoMSiD">
      <path
         d="M 0,0 V 141.133 H 534.557 V 0 Z"
         id="path56"
         inkscape:connector-curvature="0"
         style="fill:#ffffff" />
    </clipPath>
    <clipPath
       id="_clipPath_YPiPq4Bj72V7CFVrNdeltsZn8TlYgllp">
      <path
         d="M 0,0 V 141.133 H 534.557 V 0 Z"
         id="path63"
         inkscape:connector-curvature="0"
         style="fill:#ffffff" />
    </clipPath>
  </g>
</svg>
