<?xml version="1.0" encoding="UTF-8" standalone="no"?>
<!-- Created with Inkscape (http://www.inkscape.org/) -->

<svg
   xmlns:dc="http://purl.org/dc/elements/1.1/"
   xmlns:cc="http://creativecommons.org/ns#"
   xmlns:rdf="http://www.w3.org/1999/02/22-rdf-syntax-ns#"
   xmlns:svg="http://www.w3.org/2000/svg"
   xmlns="http://www.w3.org/2000/svg"
   xmlns:sodipodi="http://sodipodi.sourceforge.net/DTD/sodipodi-0.dtd"
   xmlns:inkscape="http://www.inkscape.org/namespaces/inkscape"
   width="138.02098mm"
   height="138.75131mm"
   viewBox="0 0 138.02098 138.75131"
   version="1.1"
   id="svg8"
   inkscape:version="0.92.3 (2405546, 2018-03-11)"
   sodipodi:docname="tomaaato-logo-3.svg">
  <defs
     id="defs2" />
  <sodipodi:namedview
     id="base"
     pagecolor="#ffffff"
     bordercolor="#666666"
     borderopacity="1.0"
     inkscape:pageopacity="0.0"
     inkscape:pageshadow="2"
     inkscape:zoom="2.8"
     inkscape:cx="128.3596"
     inkscape:cy="121.36685"
     inkscape:document-units="mm"
     inkscape:current-layer="layer1"
     showgrid="false"
     inkscape:window-width="1920"
     inkscape:window-height="1025"
     inkscape:window-x="0"
     inkscape:window-y="27"
     inkscape:window-maximized="1"
     inkscape:pagecheckerboard="true" />
  <metadata
     id="metadata5">
    <rdf:RDF>
      <cc:Work
         rdf:about="">
        <dc:format>image/svg+xml</dc:format>
        <dc:type
           rdf:resource="http://purl.org/dc/dcmitype/StillImage" />
        <dc:title />
      </cc:Work>
    </rdf:RDF>
  </metadata>
  <g
     inkscape:groupmode="layer"
     id="layer2"
     inkscape:label="Layer 2" />
  <g
     inkscape:label="Layer 1"
     inkscape:groupmode="layer"
     id="layer1"
     transform="translate(-35.718391,-72.387194)">
    <path
       style="fill:#ffffff;fill-opacity:1;stroke-width:0.09193794"
       d="m 134.88341,211.1385 c -5.50437,-0.2232 -11.70948,-0.73093 -16.29007,-3.55685 -6.42276,-4.27895 -11.53036,-10.97444 -12.55968,-18.78145 -1.22768,-9.07319 -0.53468,-18.24298 0.90813,-27.23261 0.65332,-7.27733 -4.01258,-15.8311 -12.015753,-16.06429 -10.21274,-1.05237 -20.69336,0.25124 -30.69769,-2.73328 -10.73601,-2.25335 -20.45801,-9.51302 -24.83028,-19.6864 -4.31166,-7.55103 -4.1641,-16.68269 -2.91672,-25.071212 2.85971,-7.50951 8.10528,-14.557963 15.12723,-18.584015 7.042435,-4.069935 13.42859,-6.388122 20.88358,-7.041199 9.83142,0.428336 20.07051,0.694405 28.935383,5.513995 6.00793,3.018384 12.1719,7.305767 14.96684,13.499744 2.63985,5.935977 5.46303,11.219607 4.89617,17.680137 0.49473,6.59818 -2.24231,12.79834 -1.98125,19.32936 -1.25907,5.47684 2.06388,12.26427 7.65876,14.07694 6.45862,-1.07308 13.59046,-0.14727 19.90963,1.57921 6.59554,1.34799 11.84667,5.76053 16.67366,10.23 4.71601,4.64422 8.04495,10.48913 9.36439,16.95056 2.31303,7.94045 -1.45553,16.32242 -5.15135,23.34181 -5.08868,5.56669 -9.75604,10.60522 -16.76502,13.19216 -4.7029,2.6747 -10.18943,3.2861 -16.11596,3.35739 z m 14.5262,-38.6129 c 6.59526,-2.77938 7.96264,-7.76692 5.50652,-14.03096 -3.93112,-5.92354 -16.61211,-9.85711 -20.86016,-2.10356 -4.30312,7.42165 2.89708,15.90441 10.54437,16.05869 1.58318,0.31037 3.21374,0.21446 4.80927,0.0758 z m -11.07853,-19.31347 c -0.52887,-0.50135 1.07658,0.4516 0,0 z M 82.570717,118.93342 c 8.17979,0.9682 12.854777,-2.39033 17.690413,-9.74918 1.58176,-4.95151 3.48571,-11.182622 -0.0139,-15.474179 -4.35897,-6.694414 -8.020253,-8.602244 -16.120613,-10.258311 -6.69891,-2.04181 -12.48446,-0.275795 -17.80946,3.054749 -5.39584,4.597916 -8.69779,12.823068 -4.51995,19.311721 4.03923,6.81609 10.76345,13.45947 19.27395,13.10087 z m -36.01669,15.6165 c -1.19721,-0.8062 1.60155,0.3496 0,0 z"
       id="path880"
       inkscape:connector-curvature="0"
       sodipodi:nodetypes="ccccccccccccccccccccccccccccccccccccccc" />
    <path
       style="fill:#000000;stroke-width:0.09193794"
       d="m 100.50363,135.84225 c -0.528872,-0.50135 1.07658,0.4516 0,0 z"
       id="path943" />
    <path
       style="fill:#000000;stroke-width:0.09193794"
       d="m 19.917525,187.34328 c -0.0188,-0.77099 1.20996,0.32406 0,0 z"
       id="path939" />
    <path
       style="fill:#000000;stroke-width:0.09193794"
       d="m 8.7265755,117.18004 c -1.19721,-0.8062 1.6015495,0.3496 0,0 z"
       id="path880-3" />
  </g>
</svg>
