<?xml version="1.0" encoding="UTF-8" standalone="no"?>
<!-- Created with Inkscape (http://www.inkscape.org/) -->

<svg
   xmlns:dc="http://purl.org/dc/elements/1.1/"
   xmlns:cc="http://creativecommons.org/ns#"
   xmlns:rdf="http://www.w3.org/1999/02/22-rdf-syntax-ns#"
   xmlns:svg="http://www.w3.org/2000/svg"
   xmlns="http://www.w3.org/2000/svg"
   xmlns:sodipodi="http://sodipodi.sourceforge.net/DTD/sodipodi-0.dtd"
   xmlns:inkscape="http://www.inkscape.org/namespaces/inkscape"
   width="187.04736mm"
   height="61.090881mm"
   viewBox="0 0 187.04736 61.090881"
   version="1.1"
   id="svg56"
   inkscape:version="0.92.3 (2405546, 2018-03-11)"
   sodipodi:docname="logo.svg">
  <defs
     id="defs50" />
  <sodipodi:namedview
     id="base"
     pagecolor="#ffffff"
     bordercolor="#666666"
     borderopacity="1.0"
     inkscape:pageopacity="0.0"
     inkscape:pageshadow="2"
     inkscape:zoom="0.35"
     inkscape:cx="-145.0961"
     inkscape:cy="75.447332"
     inkscape:document-units="mm"
     inkscape:current-layer="layer1"
     showgrid="false"
     inkscape:window-width="1920"
     inkscape:window-height="1025"
     inkscape:window-x="0"
     inkscape:window-y="27"
     inkscape:window-maximized="1" />
  <metadata
     id="metadata53">
    <rdf:RDF>
      <cc:Work
         rdf:about="">
        <dc:format>image/svg+xml</dc:format>
        <dc:type
           rdf:resource="http://purl.org/dc/dcmitype/StillImage" />
        <dc:title></dc:title>
      </cc:Work>
    </rdf:RDF>
  </metadata>
  <g
     inkscape:label="Layer 1"
     inkscape:groupmode="layer"
     id="layer1"
     transform="translate(-12.309653,-107.70456)">
    <path
       d="m 42.691932,160.95495 h -6.064249 l -5.390444,-28.36086 -5.02285,28.36086 h -6.094941 l -7.809795,-41.80593 h 6.278386 l 4.74733,26.95187 5.02285,-26.95187 h 5.635625 l 5.482167,26.95187 4.226629,-26.95187 h 6.063898 l -7.074606,41.80593"
       style="fill:#7cd4e2;fill-opacity:1;fill-rule:nonzero;stroke:none;stroke-width:0.03527778"
       id="path18"
       inkscape:connector-curvature="0" />
    <path
       d="m 58.129136,119.14902 v 41.80593 h -6.492875 v -41.80593 h 6.492875"
       style="fill:#7cd4e2;fill-opacity:1;fill-rule:nonzero;stroke:none;stroke-width:0.03527778"
       id="path20"
       inkscape:connector-curvature="0" />
    <path
       d="m 83.856865,128.98023 -6.187017,1.83762 c -1.000476,-4.14478 -2.858558,-6.21735 -5.573889,-6.21735 -1.163812,0 -2.144184,0.38805 -2.940402,1.16381 -0.837142,0.81668 -1.255535,1.84785 -1.255535,3.09351 0,1.53141 0.581728,2.92982 1.745543,4.19594 0.75565,0.81668 2.6035,2.34809 5.54355,4.59387 3.001433,2.32763 5.084233,4.19594 6.248048,5.60493 1.796696,2.18476 2.695221,4.74698 2.695221,7.68739 0,3.08327 -1.031169,5.61481 -3.093509,7.59565 -2.102908,2.02142 -4.889852,3.03213 -8.361185,3.03213 -7.146218,0 -11.383079,-3.92042 -12.710229,-11.76091 l 6.186662,-1.80728 c 0.857602,5.00275 3.032125,7.50394 6.523567,7.50394 1.470025,0 2.63384,-0.44944 3.491442,-1.34761 0.857602,-0.87807 1.286581,-2.02142 1.286581,-3.43041 0,-1.47003 -0.541163,-2.81764 -1.623483,-4.04284 -0.898173,-1.04104 -2.429582,-2.40912 -4.593873,-4.10386 -3.144309,-2.4504 -5.033082,-3.98145 -5.665965,-4.59422 -2.899479,-2.79718 -4.349044,-5.84977 -4.349044,-9.15741 0,-3.28754 1.174047,-5.89068 3.522134,-7.81015 1.980493,-1.65382 4.440766,-2.48073 7.381168,-2.48073 6.02333,0 9.933165,3.48156 11.730215,10.44398"
       style="fill:#7cd4e2;fill-opacity:1;fill-rule:nonzero;stroke:none;stroke-width:0.03527778"
       id="path22"
       inkscape:connector-curvature="0" />
    <path
       d="m 101.71377,142.54807 h -9.157757 v 18.40688 h -6.492875 v -41.80593 h 6.492875 v 17.42687 h 9.157757 v -17.42687 h 6.49287 v 41.80593 h -6.49287 v -18.40688"
       style="fill:#7cd4e2;fill-opacity:1;fill-rule:nonzero;stroke:none;stroke-width:0.03527778"
       id="path24"
       inkscape:connector-curvature="0" />
    <path
       d="m 130.58157,107.70456 h 5.26803 l -22.07859,61.09088 h -5.26768 l 22.07824,-61.09088"
       style="fill:#ffffff;fill-opacity:1;fill-rule:nonzero;stroke:none;stroke-width:0.03527778"
       id="path26"
       inkscape:connector-curvature="0" />
    <path
       d="m 143.09283,145.8864 -3.43005,-18.71309 -3.33834,18.71309 z m 1.10279,5.97218 h -8.91258 l -1.68451,9.09637 h -6.33977 l 8.02428,-41.80593 h 8.88189 l 8.4529,41.80593 h -6.64597 l -1.77624,-9.09637"
       style="fill:#ffffff;fill-opacity:1;fill-rule:nonzero;stroke:none;stroke-width:0.03527778"
       id="path28"
       inkscape:connector-curvature="0" />
    <path
       d="m 160.94903,137.83143 h 2.35833 c 1.77658,0 3.04235,-0.16334 3.798,-0.49001 1.89865,-0.81668 2.84833,-2.77671 2.84833,-5.88045 0,-2.28671 -0.53093,-3.95076 -1.59279,-4.99216 -0.61243,-0.63288 -1.35784,-1.02094 -2.23556,-1.16381 -0.77611,-0.12242 -1.7152,-0.1838 -2.81798,-0.1838 h -2.35833 z m 0,5.97253 v 17.15099 h -6.49287 v -41.80593 h 10.16847 c 3.59339,0 6.35,0.83715 8.26911,2.51143 2.49096,2.16429 3.73662,5.31883 3.73662,9.46362 0,5.30895 -1.87854,8.93303 -5.63563,10.87261 l 6.15633,18.95827 h -6.79944 l -5.54355,-17.15099 h -3.85904"
       style="fill:#ffffff;fill-opacity:1;fill-rule:nonzero;stroke:none;stroke-width:0.03527778"
       id="path30"
       inkscape:connector-curvature="0" />
    <path
       d="m 191.27134,125.1212 v 35.83375 h -6.49287 V 125.1212 h -8.11636 v -5.97218 h 22.6949 v 5.97218 h -8.08567"
       style="fill:#ffffff;fill-opacity:1;fill-rule:nonzero;stroke:none;stroke-width:0.03527778"
       id="path32"
       inkscape:connector-curvature="0" />
  </g>
</svg>
